<svg xmlns="http://www.w3.org/2000/svg" width="55.328" height="45.667" viewBox="0 0 55.328 45.667">
  <g id="AL_Logo" transform="translate(-553.38 -203.79)">
    <path id="Контур_5414" data-name="Контур 5414" d="M554.918,848.712l-.134-.4h-.806l-.137.4h-.462l.825-2.252h.347l.828,2.252Zm-.529-1.588-.286.819h.564Z" transform="translate(0 -599.274)" fill="#cecece"/>
    <path id="Контур_5415" data-name="Контур 5415" d="M590.137,848.5a.83.83,0,0,1-.6.215h-.818V846.46h.818a.83.83,0,0,1,.6.215,1.127,1.127,0,0,1,.229.9,1.167,1.167,0,0,1-.229.92m-.309-1.505a.4.4,0,0,0-.332-.139h-.334v1.467h.334a.4.4,0,0,0,.332-.139c.083-.1.1-.262.1-.6s-.012-.483-.1-.585" transform="translate(-32.954 -599.274)" fill="#cecece"/>
    <path id="Контур_5416" data-name="Контур 5416" d="M618.2,848.712h-.331l-.749-2.252h.459l.455,1.467.455-1.467h.462Z" transform="translate(-59.436 -599.274)" fill="#cecece"/>
    <path id="Контур_5417" data-name="Контур 5417" d="M646.069,848.712l-.134-.4h-.806l-.137.4h-.462l.825-2.252h.347l.828,2.252Zm-.529-1.588-.286.819h.564Z" transform="translate(-84.995 -599.274)" fill="#cecece"/>
    <path id="Контур_5418" data-name="Контур 5418" d="M681.22,848.712l-.9-1.382v1.382h-.442V846.46h.394l.9,1.379V846.46h.443v2.252Z" transform="translate(-117.958 -599.274)" fill="#cecece"/>
    <path id="Контур_5419" data-name="Контур 5419" d="M714.665,848.479a.837.837,0,0,1-.612-.246.653.653,0,0,1-.185-.338,3.093,3.093,0,0,1-.039-.56,3.036,3.036,0,0,1,.039-.56.636.636,0,0,1,.185-.338.833.833,0,0,1,.612-.246.8.8,0,0,1,.835.712h-.449a.373.373,0,0,0-.382-.319.351.351,0,0,0-.284.118c-.093.1-.111.2-.111.635s.019.538.111.635a.351.351,0,0,0,.284.117.373.373,0,0,0,.382-.319h.449a.8.8,0,0,1-.835.711" transform="translate(-149.616 -599.022)" fill="#cecece"/>
    <path id="Контур_5420" data-name="Контур 5420" d="M743.05,848.712V846.46h1.494v.392h-1.051v.528h.895v.392h-.895v.547h1.051v.392Z" transform="translate(-176.863 -599.274)" fill="#cecece"/>
    <path id="Контур_5421" data-name="Контур 5421" d="M774.567,848.5a.831.831,0,0,1-.6.215h-.818V846.46h.818a.83.83,0,0,1,.6.215,1.127,1.127,0,0,1,.229.9,1.164,1.164,0,0,1-.229.92m-.309-1.505a.4.4,0,0,0-.332-.139h-.334v1.467h.334a.4.4,0,0,0,.332-.139c.083-.1.1-.262.1-.6s-.013-.483-.1-.585" transform="translate(-204.93 -599.274)" fill="#cecece"/>
    <path id="Контур_5422" data-name="Контур 5422" d="M821.553,846.852v.553h.895v.392h-.895v.914h-.443V846.46H822.6v.392Z" transform="translate(-249.652 -599.274)" fill="#cecece"/>
    <rect id="Прямоугольник_675" data-name="Прямоугольник 675" width="0.443" height="2.252" transform="translate(573.443 247.186)" fill="#cecece"/>
    <path id="Контур_5423" data-name="Контур 5423" d="M866.45,848.712V846.46h.443v1.86h1.029v.392Z" transform="translate(-291.93 -599.274)" fill="#cecece"/>
    <path id="Контур_5424" data-name="Контур 5424" d="M889.9,846.852v1.86h-.443v-1.86h-.592v-.392h1.628v.392Z" transform="translate(-312.827 -599.274)" fill="#cecece"/>
    <path id="Контур_5425" data-name="Контур 5425" d="M921.064,848.712l-.443-.9H920.3v.9h-.442V846.46h.889a.683.683,0,0,1,.735.689.607.607,0,0,1-.414.591l.506.971Zm-.344-1.86H920.3v.595h.417a.3.3,0,1,0,0-.595" transform="translate(-341.734 -599.274)" fill="#cecece"/>
    <path id="Контур_5426" data-name="Контур 5426" d="M950.128,848.712l-.134-.4h-.806l-.137.4h-.462l.825-2.252h.347l.828,2.252Zm-.529-1.588-.286.819h.564Z" transform="translate(-368.524 -599.274)" fill="#cecece"/>
    <path id="Контур_5427" data-name="Контур 5427" d="M979.625,846.852v1.86h-.442v-1.86h-.593v-.392h1.628v.392Z" transform="translate(-396.498 -599.274)" fill="#cecece"/>
    <rect id="Прямоугольник_676" data-name="Прямоугольник 676" width="0.443" height="2.252" transform="translate(584.185 247.186)" fill="#cecece"/>
    <path id="Контур_5428" data-name="Контур 5428" d="M1025.849,848.233a.823.823,0,0,1-.612.246.833.833,0,0,1-.615-.246c-.229-.228-.223-.509-.223-.9s-.006-.671.223-.9a.832.832,0,0,1,.615-.246.823.823,0,0,1,.612.246c.23.228.226.509.226.9s0,.671-.226.9m-.328-1.531a.37.37,0,0,0-.284-.12.375.375,0,0,0-.286.12c-.086.1-.108.2-.108.633s.022.537.108.633a.376.376,0,0,0,.286.12.368.368,0,0,0,.284-.12c.086-.1.111-.2.111-.633s-.026-.538-.111-.633" transform="translate(-439.214 -599.022)" fill="#cecece"/>
    <path id="Контур_5429" data-name="Контур 5429" d="M1058.821,848.712l-.9-1.382v1.382h-.443V846.46h.4l.9,1.379V846.46h.443v2.252Z" transform="translate(-470.061 -599.274)" fill="#cecece"/>
    <path id="Контур_5430" data-name="Контур 5430" d="M1105.7,848.479a1.072,1.072,0,0,1-.828-.3l.287-.285a.745.745,0,0,0,.548.19c.261,0,.4-.1.4-.278a.25.25,0,0,0-.07-.19.337.337,0,0,0-.2-.079l-.274-.038a.771.771,0,0,1-.439-.186.593.593,0,0,1-.162-.443.7.7,0,0,1,.79-.683.975.975,0,0,1,.733.263l-.28.275a.635.635,0,0,0-.465-.155c-.236,0-.35.13-.35.285a.217.217,0,0,0,.067.161.385.385,0,0,0,.21.089l.268.038a.747.747,0,0,1,.433.174.629.629,0,0,1,.175.477c0,.436-.367.683-.841.683" transform="translate(-514.251 -599.022)" fill="#cecece"/>
    <path id="Контур_5431" data-name="Контур 5431" d="M1137.65,848.233a.823.823,0,0,1-.612.246.833.833,0,0,1-.615-.246c-.229-.228-.223-.509-.223-.9s-.006-.671.223-.9a.832.832,0,0,1,.615-.246.823.823,0,0,1,.612.246c.23.228.226.509.226.9s0,.671-.226.9m-.328-1.531a.37.37,0,0,0-.284-.12.375.375,0,0,0-.286.12c-.086.1-.108.2-.108.633s.022.537.108.633a.376.376,0,0,0,.286.12.368.368,0,0,0,.284-.12c.086-.1.111-.2.111-.633s-.026-.538-.111-.633" transform="translate(-543.465 -599.022)" fill="#cecece"/>
    <path id="Контур_5432" data-name="Контур 5432" d="M1169.28,848.712V846.46h.442v1.86h1.029v.392Z" transform="translate(-574.312 -599.274)" fill="#cecece"/>
    <path id="Контур_5433" data-name="Контур 5433" d="M1197.715,848.731a.786.786,0,0,1-.835-.791v-1.48h.443v1.465a.394.394,0,1,0,.787,0V846.46h.44v1.48a.787.787,0,0,1-.835.791" transform="translate(-600.048 -599.274)" fill="#cecece"/>
    <path id="Контур_5434" data-name="Контур 5434" d="M1229.005,846.852v1.86h-.442v-1.86h-.593v-.392h1.628v.392Z" transform="translate(-629.039 -599.274)" fill="#cecece"/>
    <rect id="Прямоугольник_677" data-name="Прямоугольник 677" width="0.443" height="2.252" transform="translate(601.025 247.186)" fill="#cecece"/>
    <path id="Контур_5435" data-name="Контур 5435" d="M1275.229,848.233a.887.887,0,0,1-1.227,0c-.23-.228-.223-.509-.223-.9s-.007-.671.223-.9a.887.887,0,0,1,1.227,0c.23.228.226.509.226.9s0,.671-.226.9m-.328-1.531a.369.369,0,0,0-.284-.12.374.374,0,0,0-.286.12c-.086.1-.109.2-.109.633s.022.537.109.633a.374.374,0,0,0,.286.12.37.37,0,0,0,.284-.12c.086-.1.111-.2.111-.633s-.026-.538-.111-.633" transform="translate(-671.755 -599.022)" fill="#cecece"/>
    <path id="Контур_5436" data-name="Контур 5436" d="M1308.2,848.712l-.9-1.382v1.382h-.442V846.46h.395l.9,1.379V846.46h.442v2.252Z" transform="translate(-702.602 -599.274)" fill="#cecece"/>
    <path id="Контур_5437" data-name="Контур 5437" d="M1339.759,848.479a1.073,1.073,0,0,1-.829-.3l.287-.285a.745.745,0,0,0,.548.19c.261,0,.4-.1.4-.278a.25.25,0,0,0-.07-.19.337.337,0,0,0-.2-.079l-.273-.038a.772.772,0,0,1-.44-.186.591.591,0,0,1-.162-.443.7.7,0,0,1,.79-.683.975.975,0,0,1,.733.263l-.28.275a.635.635,0,0,0-.465-.155c-.236,0-.35.13-.35.285a.217.217,0,0,0,.067.161.386.386,0,0,0,.21.089l.268.038a.747.747,0,0,1,.433.174.628.628,0,0,1,.175.477c0,.436-.367.683-.841.683" transform="translate(-732.506 -599.022)" fill="#cecece"/>
    <path id="Контур_5438" data-name="Контур 5438" d="M590.537,694.782a3.127,3.127,0,0,1-2.23-.91c-.842-.842-.842-1.755-.842-3.268s0-2.426.842-3.268a3.086,3.086,0,0,1,2.23-.91,2.964,2.964,0,0,1,2.9,1.99.636.636,0,0,1-1.195.436,1.716,1.716,0,0,0-1.706-1.154,1.843,1.843,0,0,0-1.332.538c-.449.449-.469.895-.469,2.369s.02,1.92.469,2.369a1.92,1.92,0,0,0,2.725-.061,1.561,1.561,0,0,0,.417-1.049h-1.809a.635.635,0,1,1,0-1.271h2.457a.635.635,0,0,1,.635.635v.317a3.036,3.036,0,0,1-.768,2.235,3.13,3.13,0,0,1-2.323,1m27.82-.633v-6.457h2a1.382,1.382,0,0,1,1.556,1.446,1.4,1.4,0,0,1-1.556,1.456h-.673a.635.635,0,0,0,0,1.271h.673a2.725,2.725,0,1,0,0-5.445h-2.64a.636.636,0,0,0-.635.635v7.093a.635.635,0,0,0,1.271,0m-2.353-2.858v-4.229a.635.635,0,1,0-1.271,0v4.229a2.033,2.033,0,1,1-4.049,0v-4.229a.635.635,0,1,0-1.271,0v4.229a3.3,3.3,0,1,0,6.59,0m-7.611-1.371v1.371a3.3,3.3,0,1,1-6.592,0v-1.371a3.3,3.3,0,1,1,6.592,0m-1.271,1.328V689.92a2.033,2.033,0,1,0-4.049,0v1.371a2.033,2.033,0,1,0,4.049,0Zm-22.63,2.9a.635.635,0,0,0-.635-.635h-3.024v-6.448a.635.635,0,0,0-1.271,0v6.629a1.028,1.028,0,0,0,1.08,1.091h3.215a.636.636,0,0,0,.635-.636m14.876-2.6a2.6,2.6,0,0,0,1.413-2.407,2.654,2.654,0,0,0-2.827-2.718h-2.64a.635.635,0,0,0-.635.635v7.085a.635.635,0,1,0,1.271,0V687.7h2a1.382,1.382,0,0,1,1.556,1.446,1.4,1.4,0,0,1-1.556,1.456H597.3a.635.635,0,1,0,0,1.271h.806l1.318,2.565a.636.636,0,1,0,1.13-.581ZM585.8,693.607a.542.542,0,1,0,.542.542.542.542,0,0,0-.542-.542m-7.543,0a.542.542,0,1,0,.542.542.542.542,0,0,0-.542-.542m-1.339.328-2.5-7.084c0-.005-.005-.01-.007-.016a.556.556,0,0,0-.03-.064c-.009-.017-.017-.034-.027-.05s-.024-.034-.037-.05-.025-.032-.039-.048-.029-.026-.044-.039-.031-.028-.048-.04-.034-.021-.052-.031a.592.592,0,0,0-.054-.029c-.018-.008-.036-.013-.055-.02a.547.547,0,0,0-.062-.019.474.474,0,0,0-.053-.008.68.68,0,0,0-.074-.007h-1.783a.634.634,0,0,0-.6.423l-2.5,7.085a.636.636,0,0,0,1.2.423L572.5,687.7h.868l1.026,2.9h-1.582a.635.635,0,1,0,0,1.271h2.032l.879,2.488a.637.637,0,0,0,.6.424.63.63,0,0,0,.212-.036.638.638,0,0,0,.385-.812" transform="translate(-14.482 -450.04)" fill="#cecece"/>
    <path id="Контур_5439" data-name="Контур 5439" d="M1018.217,226.186l-.757-1.8a2.017,2.017,0,0,1-.1,1.535l-.789,1.862.508,1.2,1.019-2.411a2.153,2.153,0,0,0,.12-.388" transform="translate(-431.913 -19.209)" fill="#cecece"/>
    <path id="Контур_5440" data-name="Контур 5440" d="M917.411,484.73H916.37l-.81,1.911h1.046Z" transform="translate(-337.724 -261.97)" fill="#cecece"/>
    <path id="Контур_5441" data-name="Контур 5441" d="M931.04,486.641h8.237l-.81-1.911h-6.622Z" transform="translate(-352.159 -261.97)" fill="#cecece"/>
    <path id="Контур_5442" data-name="Контур 5442" d="M770.275,208.577l.789-1.862a2.021,2.021,0,0,0,.1-1.534l-.08-.191a3.209,3.209,0,0,0-.348-.571c-.029-.033-.058-.065-.088-.1s-.058-.059-.088-.086-.069-.059-.1-.086-.059-.047-.091-.068-.081-.051-.122-.074-.059-.034-.091-.05a1.507,1.507,0,0,0-.141-.058c-.029-.011-.057-.024-.087-.033-.054-.017-.109-.028-.165-.04-.026-.005-.05-.013-.076-.017a1.616,1.616,0,0,0-.25-.02h-4.994a1.622,1.622,0,0,0-.25.02c-.025,0-.049.011-.074.016a1.55,1.55,0,0,0-.167.041c-.028.009-.056.022-.084.032-.049.018-.1.036-.145.059-.03.015-.058.032-.088.048s-.085.048-.126.076-.059.043-.089.066-.072.057-.107.088-.058.055-.086.084-.06.064-.089.1-.055.067-.08.1-.051.072-.076.111-.047.074-.068.113c-.009.017-.021.032-.03.05s-.027.061-.041.091-.022.04-.031.061l-10.19,24.062a2.278,2.278,0,0,0,.072,1.92,1.761,1.761,0,0,0,1.558,1h4.995a1.788,1.788,0,0,0,1.63-1.157l1.964-4.639h-2.322l-1.484,3.5h-4.357l9.975-23.547H769l-2.2,5.207h2.319l1.155-2.717Z" transform="translate(-185.617)" fill="#cecece"/>
    <path id="Контур_5443" data-name="Контур 5443" d="M1034.569,273.011l-9.331-22.031a2.191,2.191,0,0,1-.119.387l-1.019,2.413,8.41,19.858h-4.354l-1.484-3.5h-2.319l1.961,4.639a1.787,1.787,0,0,0,1.63,1.157h4.995a1.761,1.761,0,0,0,1.558-1,2.273,2.273,0,0,0,.072-1.919" transform="translate(-438.935 -44.004)" fill="#cecece"/>
    <path id="Контур_5444" data-name="Контур 5444" d="M888.586,336.6h-2.319l-5.047,11.913h2.319Z" transform="translate(-305.703 -123.842)" fill="#cecece"/>
  </g>
</svg>
