<svg xmlns="http://www.w3.org/2000/svg" width="49" height="49" viewBox="0 0 49 49">
  <g id="icon-scroll" transform="translate(-936 -841)">
    <path id="Вычитание_2" data-name="Вычитание 2" d="M104.5,49h0V46.55A22.05,22.05,0,1,0,82.45,24.5H80A24.513,24.513,0,1,1,104.5,49Z" transform="translate(856 841)" fill="#fff"/>
    <g id="noun-arrow-up-5277125" transform="translate(1185.267 1065.97) rotate(180)">
      <path id="Контур_4291" data-name="Контур 4291" d="M226.173,192.916l7.967,9.548a1.186,1.186,0,1,1-1.82,1.522l-7.072-8.444-7.042,8.474a1.184,1.184,0,0,1-1.671.149,1.13,1.13,0,0,1-.418-.925,1.288,1.288,0,0,1,.269-.776l7.967-9.548a1.224,1.224,0,0,1,.925-.418,1.162,1.162,0,0,1,.9.418Z" fill="#fff"/>
    </g>
  </g>
</svg>
