<svg id="Сгруппировать_1600" data-name="Сгруппировать 1600" xmlns="http://www.w3.org/2000/svg" xmlns:xlink="http://www.w3.org/1999/xlink" width="142.167" height="94.721" viewBox="0 0 142.167 94.721">
  <defs>
    <clipPath id="clip-path">
      <rect id="Прямоугольник_372" data-name="Прямоугольник 372" width="142.167" height="94.721" fill="none"/>
    </clipPath>
    <clipPath id="clip-path-2">
      <path id="Контур_4288" data-name="Контур 4288" d="M161.011,27.8A44.472,44.472,0,0,0,147.9,59.45h18.091a26.675,26.675,0,1,1,26.675,26.674v18.091A44.765,44.765,0,1,0,161.011,27.8" transform="translate(-147.9 -14.685)" fill="none"/>
    </clipPath>
  </defs>
  <g id="Сгруппировать_1597" data-name="Сгруппировать 1597">
    <g id="Сгруппировать_1596" data-name="Сгруппировать 1596" clip-path="url(#clip-path)">
      <path id="Контур_4285" data-name="Контур 4285" d="M78.554,237.644h12.03v-1.251H79.858v-7.638h9.315V227.5H79.858V220H90.211v-1.251H78.554Zm-5.429-2.4a9.006,9.006,0,0,1-2.063.971,7.985,7.985,0,0,1-2.542.386,8.474,8.474,0,0,1-3.38-.652,7.683,7.683,0,0,1-2.6-1.8A7.9,7.9,0,0,1,60.9,231.5a9.033,9.033,0,0,1-.572-3.22,8.619,8.619,0,0,1,.639-3.327,8.442,8.442,0,0,1,1.77-2.7,8.256,8.256,0,0,1,2.622-1.81,7.811,7.811,0,0,1,3.167-.652,7.618,7.618,0,0,1,2.475.4,10.03,10.03,0,0,1,2.1.985l.559-1.2a10.671,10.671,0,0,0-2.369-1.038,9.5,9.5,0,0,0-2.795-.4,9.4,9.4,0,0,0-8.81,5.935,10.23,10.23,0,0,0-.718,3.859,9.855,9.855,0,0,0,.679,3.659,9.359,9.359,0,0,0,1.929,3.034,9.028,9.028,0,0,0,3.008,2.076,9.772,9.772,0,0,0,3.912.758,10.189,10.189,0,0,0,2.076-.2,9.035,9.035,0,0,0,1.756-.546,11.442,11.442,0,0,0,1.41-.718ZM54.148,238.1V218.747H52.9l.027,16.634.346-.106-14.9-16.927h-.08v19.3h1.277l-.027-16.608-.346.266L54.1,238.1Zm-32.869-.452h12.03v-1.251H22.584v-7.638H31.9V227.5H22.584V220H32.937v-1.251H21.28Zm-4.551,0v-1.251H3.049l.106.213L16.09,218.747H3.927a1.136,1.136,0,0,1-.639-.133.55.55,0,0,1-.186-.479v-.319H1.851v.825a1.224,1.224,0,0,0,.24.8,1.354,1.354,0,0,0,.639.426,2.756,2.756,0,0,0,.878.133H14.28l-.24-.346q-.613.8-1.357,1.81T11.1,223.631q-.838,1.158-1.73,2.4t-1.823,2.515q-.932,1.277-1.823,2.542t-1.73,2.448q-.839,1.185-1.584,2.223l-1.357,1.889Z" transform="translate(-0.694 -143.56)" fill="#fff"/>
      <path id="Контур_4286" data-name="Контур 4286" d="M78.554,237.644h12.03v-1.251H79.858v-7.638h9.315V227.5H79.858V220H90.211v-1.251H78.554Zm-5.429-2.4a9.006,9.006,0,0,1-2.063.971,7.985,7.985,0,0,1-2.542.386,8.474,8.474,0,0,1-3.38-.652,7.683,7.683,0,0,1-2.6-1.8A7.9,7.9,0,0,1,60.9,231.5a9.033,9.033,0,0,1-.572-3.22,8.619,8.619,0,0,1,.639-3.327,8.442,8.442,0,0,1,1.77-2.7,8.256,8.256,0,0,1,2.622-1.81,7.811,7.811,0,0,1,3.167-.652,7.618,7.618,0,0,1,2.475.4,10.03,10.03,0,0,1,2.1.985l.559-1.2a10.671,10.671,0,0,0-2.369-1.038,9.5,9.5,0,0,0-2.795-.4,9.4,9.4,0,0,0-8.81,5.935,10.23,10.23,0,0,0-.718,3.859,9.855,9.855,0,0,0,.679,3.659,9.359,9.359,0,0,0,1.929,3.034,9.028,9.028,0,0,0,3.008,2.076,9.772,9.772,0,0,0,3.912.758,10.189,10.189,0,0,0,2.076-.2,9.035,9.035,0,0,0,1.756-.546,11.442,11.442,0,0,0,1.41-.718ZM54.148,238.1V218.747H52.9l.027,16.634.346-.106-14.9-16.927h-.08v19.3h1.277l-.027-16.608-.346.266L54.1,238.1Zm-32.869-.452h12.03v-1.251H22.584v-7.638H31.9V227.5H22.584V220H32.937v-1.251H21.28Zm-4.551,0v-1.251H3.049l.106.213L16.09,218.747H3.927a1.136,1.136,0,0,1-.639-.133.55.55,0,0,1-.186-.479v-.319H1.851v.825a1.224,1.224,0,0,0,.24.8,1.354,1.354,0,0,0,.639.426,2.756,2.756,0,0,0,.878.133H14.28l-.24-.346q-.613.8-1.357,1.81T11.1,223.631q-.838,1.158-1.73,2.4t-1.823,2.515q-.932,1.277-1.823,2.542t-1.73,2.448q-.839,1.185-1.584,2.223l-1.357,1.889Z" transform="translate(-0.694 -143.56)" fill="none" stroke="#fff" stroke-width="1.079"/>
    </g>
  </g>
  <g id="Сгруппировать_1599" data-name="Сгруппировать 1599" transform="translate(50.421 5.006)">
    <g id="Сгруппировать_1598" data-name="Сгруппировать 1598" clip-path="url(#clip-path-2)">
      <path id="Контур_4287" data-name="Контур 4287" d="M197.18,92.517a.394.394,0,0,0,.452.646c4.379-3.062,9.775-4.99,14.476-6.472a.391.391,0,0,0,.275-.376.415.415,0,0,0-.017-.118.394.394,0,0,0-.495-.257c-4.758,1.5-10.225,3.455-14.691,6.578m-6.585,1.25a.394.394,0,0,0,.61.5c5.814-7.109,16.081-10.1,26.952-13.258l1.285-.374a.39.39,0,0,0,.284-.377.4.4,0,0,0-.016-.111.394.394,0,0,0-.489-.268l-1.287.374c-10.99,3.2-21.371,6.216-27.34,13.515m-4.055.328a.385.385,0,0,0-.046.184.394.394,0,0,0,.742.185c5.206-9.836,17.294-13.363,30.091-17.1l.048-.014c2.138-.624,4.349-1.269,6.528-1.945a.393.393,0,0,0,.277-.377.412.412,0,0,0-.017-.116.394.394,0,0,0-.493-.259c-2.2.681-4.417,1.329-6.564,1.956-12.962,3.782-25.2,7.355-30.567,17.485m-3.12.028a.394.394,0,1,0,.745.257c4.311-12.5,18.022-16.493,32.538-20.715l.026-.008c3.389-.986,6.894-2.006,10.324-3.147a.394.394,0,0,0,.27-.374.39.39,0,0,0-.02-.124.4.4,0,0,0-.5-.25c-3.42,1.138-6.922,2.157-10.322,3.146-14.718,4.282-28.618,8.325-33.062,21.215m-2.58-.135a.385.385,0,0,0-.009.082.394.394,0,0,0,.779.081c3.225-15.189,18.529-19.594,34.734-24.258,4.265-1.228,8.676-2.5,12.962-3.985a.4.4,0,0,0,.265-.372.382.382,0,0,0-.022-.13.393.393,0,0,0-.5-.243c-4.262,1.48-8.657,2.745-12.923,3.973-16.437,4.731-31.962,9.2-35.285,24.852m-2.222-.23a.377.377,0,0,0,0,.044.394.394,0,0,0,.785.043c1.977-17.95,18.954-22.737,36.93-27.806,4.792-1.351,9.747-2.749,14.55-4.42a.394.394,0,0,0,.264-.372.4.4,0,0,0-.022-.13.4.4,0,0,0-.5-.242c-4.777,1.663-9.717,3.056-14.505,4.406-18.237,5.142-35.464,10-37.5,28.477m-1.955-.287v.008a.394.394,0,0,0,.788.01c.576-20.83,18.536-25.728,39.333-31.4,4.984-1.359,10.137-2.764,15.147-4.438a.394.394,0,0,0-.25-.747c-4.99,1.668-10.132,3.07-15.1,4.426-20.221,5.514-39.321,10.722-39.914,32.141m-1.844-.4v.017a.394.394,0,0,0,.788.013c.029-.838.05-1.627.066-2.411.442-21.845,19.8-26.857,42.209-32.66,4.829-1.25,9.824-2.544,14.7-4.042a.393.393,0,0,0,.279-.376.382.382,0,0,0-.018-.116.393.393,0,0,0-.492-.26c-4.865,1.494-9.849,2.785-14.671,4.034-21.774,5.638-42.341,10.963-42.8,33.406-.015.747-.036,1.532-.065,2.4m-1.892-.479v.02a.394.394,0,0,0,.787.021c.088-1.633.152-3.346.193-5.092.518-22.787,21.6-27.838,46.009-33.689,4.261-1.021,8.668-2.077,13-3.248a.4.4,0,0,0,.291-.381.408.408,0,0,0-.013-.1.4.4,0,0,0-.483-.277c-4.334,1.171-8.732,2.224-12.985,3.244-23.7,5.678-46.076,11.042-46.609,34.436-.04,1.737-.1,3.442-.192,5.069M142.2,30.09a.394.394,0,0,0-.639-.35.39.39,0,0,0-.144.265c-.029.271-.057.542-.08.81-.533,5.906-1.49,10.178-3.014,13.445a.391.391,0,0,0-.037.167.394.394,0,0,0,.751.166c1.563-3.352,2.543-7.708,3.084-13.708.024-.264.051-.53.079-.8m4.736-9.051a.394.394,0,0,0-.729-.3A44.5,44.5,0,0,0,143.1,33.966c-.674,7.943-2.155,13.319-4.663,16.918a.394.394,0,0,0,.647.45c2.59-3.717,4.115-9.214,4.8-17.3a43.711,43.711,0,0,1,3.049-12.995M205.37,4.183a.395.395,0,0,0-.275-.483c-9.588-2.644-18.269-3.881-25.8-3.676a.392.392,0,0,0-.383.393v.01h0a.4.4,0,0,0,.4.384c7.454-.2,16.058,1.024,25.572,3.648a.394.394,0,0,0,.484-.276m7.8,4.422a.388.388,0,0,0,.017-.113.392.392,0,0,0-.28-.378C189.43,1,171.456,1.525,159.484,9.688c-11.436,7.8-14.065,20.532-14.615,27.429-.74,9.281-2.491,15.116-5.679,18.92a.394.394,0,1,0,.6.506c3.3-3.938,5.108-9.91,5.861-19.364.538-6.757,3.108-19.228,14.273-26.84,11.765-8.022,29.513-8.518,52.752-1.471a.4.4,0,0,0,.491-.263M217.36,11.9a.395.395,0,0,0-.265-.49C192.43,4.02,173.6,4.621,161.135,13.2c-8.481,5.834-13.63,15.448-14.5,27.072-.756,10.106-2.695,16.377-6.288,20.332a.394.394,0,0,0,.583.53c3.719-4.094,5.72-10.51,6.491-20.8.851-11.38,5.88-20.785,14.161-26.48,12.261-8.433,30.862-9,55.287-1.682a.394.394,0,0,0,.491-.265m2.975,2.867a.4.4,0,0,0,.015-.108.4.4,0,0,0-.286-.379c-25.017-7.143-44.879-6.267-57.439,2.536-8.381,5.874-13.433,15.321-14.225,26.6-.747,10.646-2.769,17.234-6.554,21.364a.392.392,0,0,0-.1.266.394.394,0,0,0,.684.266c3.914-4.269,6-11,6.759-21.84.775-11.04,5.708-20.278,13.891-26.014,12.358-8.661,31.99-9.5,56.771-2.423a.394.394,0,0,0,.487-.271m2.31,2.617a.4.4,0,0,0,.013-.1.4.4,0,0,0-.292-.381c-25.486-6.762-45.667-5.517-58.36,3.6C155.8,26.4,150.884,35.655,150.166,46.57c-.72,10.943-2.733,17.752-6.528,22.08a.394.394,0,1,0,.592.52c3.917-4.466,5.989-11.42,6.721-22.548.5-7.552,3.244-18.1,13.513-25.479,12.5-8.976,32.447-10.178,57.7-3.478a.4.4,0,0,0,.482-.28m1.892,2.473a.4.4,0,0,0,.012-.094.392.392,0,0,0-.3-.381c-25.846-6.217-46.232-4.531-58.955,4.876-8.082,5.976-12.7,14.78-13.359,25.463-.677,11.013-2.605,17.949-6.251,22.492a.394.394,0,1,0,.614.493c3.754-4.677,5.735-11.75,6.423-22.937.643-10.443,5.152-19.046,13.04-24.878,12.53-9.264,32.691-10.9,58.3-4.743a.394.394,0,0,0,.475-.29m1.6,2.381a.389.389,0,0,0,.008-.079.4.4,0,0,0-.312-.387c-26.164-5.544-46.684-3.364-59.342,6.3-7.778,5.941-12.2,14.514-12.793,24.8-.625,10.874-2.409,17.842-5.782,22.595a.394.394,0,0,0,.642.456c3.464-4.88,5.291-11.975,5.926-23.006.578-10.044,4.895-18.417,12.485-24.215,12.47-9.524,32.768-11.654,58.7-6.159a.4.4,0,0,0,.467-.305m1.375,2.326a.4.4,0,0,0-.318-.457c-26.48-4.761-47.081-2.049-59.573,7.841a31.966,31.966,0,0,0-12.157,24.074c-.558,10.4-2.2,17.506-5.17,22.372a.394.394,0,0,0,.672.41c3.04-4.982,4.72-12.208,5.284-22.741a31.2,31.2,0,0,1,11.859-23.5c12.311-9.746,32.694-12.4,58.946-7.684a.387.387,0,0,0,.294-.064.392.392,0,0,0,.163-.254m1.186,2.295a.429.429,0,0,0,0-.051.4.4,0,0,0-.337-.394c-26.822-3.871-47.457-.6-59.673,9.456-7.126,5.866-10.983,13.706-11.462,23.3-.494,9.889-1.917,16.819-4.478,21.81a.394.394,0,0,0,.472.555.39.39,0,0,0,.229-.195c2.614-5.094,4.064-12.126,4.564-22.13.468-9.366,4.228-17.014,11.175-22.734,12.041-9.913,32.463-13.123,59.06-9.285a.388.388,0,0,0,.292-.074.393.393,0,0,0,.154-.261m1.032,2.294a.351.351,0,0,0,0-.042.393.393,0,0,0-.353-.391c-27.216-2.876-47.847.967-59.663,11.114a30.347,30.347,0,0,0-10.721,22.489c-.429,9.23-1.624,15.875-3.764,20.915a.4.4,0,0,0,.209.516.392.392,0,0,0,.516-.209c2.177-5.128,3.392-11.86,3.825-21.186a29.589,29.589,0,0,1,10.448-21.928c11.647-10,32.072-13.78,59.067-10.928a.395.395,0,0,0,.433-.35m.9,2.312v-.022a.4.4,0,0,0-.369-.395c-27.676-1.77-48.265,2.65-59.541,12.781a29.731,29.731,0,0,0-9.955,21.645c-.359,8.338-1.363,14.784-3.069,19.706a.394.394,0,1,0,.745.257c1.731-4.995,2.749-11.514,3.112-19.929a28.969,28.969,0,0,1,9.694-21.093c11.116-9.987,31.506-14.337,58.966-12.581a.395.395,0,0,0,.418-.369m.769,2.344a.379.379,0,0,0-.386-.4c-20.726-.4-37.038,2.065-48.482,7.332-12.769,5.876-19.5,15.256-20,27.877A80.468,80.468,0,0,1,160.1,86.842a.39.39,0,0,0-.015.106.4.4,0,0,0,.287.379.395.395,0,0,0,.486-.273,81.24,81.24,0,0,0,2.455-18.4c.49-12.3,7.065-21.451,19.543-27.194,11.335-5.217,27.531-7.66,48.137-7.26a.4.4,0,0,0,.4-.393m.647,2.417a.394.394,0,0,0-.4-.383c-45.092,1.25-66.492,12.668-67.345,35.931a91.457,91.457,0,0,1-1.857,16.476.394.394,0,1,0,.768.173A92.194,92.194,0,0,0,165.078,71.8c.835-22.76,21.991-33.936,66.58-35.172a.406.406,0,0,0,.383-.405m.528,2.526v-.029a.394.394,0,0,0-.423-.363c-33.773,2.594-65.154,8.82-66.088,36.564a103.533,103.533,0,0,1-1.369,14.52.394.394,0,1,0,.776.137,104.24,104.24,0,0,0,1.381-14.631c.913-27.124,31.953-33.239,65.36-35.805a.4.4,0,0,0,.364-.394m.4,2.623a.448.448,0,0,0,0-.045.4.4,0,0,0-.44-.341c-15.952,2.028-32.534,4.458-44.577,9.831-13.155,5.869-19.737,14.785-20.121,27.254a116.651,116.651,0,0,1-.962,12.377.419.419,0,0,0,0,.055.394.394,0,0,0,.784.054,117.549,117.549,0,0,0,.969-12.461c.373-12.138,6.8-20.825,19.655-26.559,11.945-5.33,28.462-7.749,44.355-9.77a.393.393,0,0,0,.344-.4m.255,2.771a.4.4,0,0,0-.006-.069.393.393,0,0,0-.456-.319l-3.744.66c-30.178,5.31-58.683,10.326-59.425,36.806-.1,3.711-.311,7.006-.632,10.072a.313.313,0,0,0,0,.043.394.394,0,0,0,.785.041c.324-3.082.532-6.4.637-10.134C171.1,55.41,199.3,50.449,229.149,45.2l3.744-.661a.394.394,0,0,0,.325-.388m.093,2.938A.414.414,0,0,0,233.3,47a.4.4,0,0,0-.471-.3c-3.2.722-6.436,1.411-9.567,2.079l-.063.013C196.858,54.4,171.978,59.7,171.353,84.376c-.069,2.7-.2,5.269-.378,7.63,0,.01,0,.021,0,.031a.4.4,0,0,0,.363.392.394.394,0,0,0,.423-.362c.183-2.37.311-4.951.38-7.671.609-24.056,25.194-29.291,51.223-34.833l.064-.014c3.133-.667,6.373-1.357,9.576-2.081a.4.4,0,0,0,.307-.385" transform="translate(-141.565 -5.007)" fill="#fff"/>
    </g>
  </g>
</svg>
